<svg xmlns="http://www.w3.org/2000/svg" xmlns:xlink="http://www.w3.org/1999/xlink" width="315" height="299.999"><defs><linearGradient id="q"><stop offset="0" stop-color="#33bdf2" stop-opacity=".698"/><stop offset="1" stop-color="#1dacd8"/></linearGradient><linearGradient id="p"><stop offset="0" stop-color="#05a1e6" stop-opacity=".247"/><stop offset="1" stop-color="#05a1e6"/></linearGradient><radialGradient cx="0" cy="0" r="1" fx="0" fy="0" id="a" gradientUnits="userSpaceOnUse" gradientTransform="matrix(-368.83783 3054.2361 3027.4705 178.24222 -35.956 775.328)" spreadMethod="pad"><stop offset="0" stop-color="#fff"/><stop offset=".907" stop-color="#9ca6b0"/><stop offset=".907" stop-color="#9ca6b0"/><stop offset="1" stop-color="#c2c6cc"/></radialGradient><linearGradient x2="1" id="b" gradientUnits="userSpaceOnUse" gradientTransform="matrix(0 -29.6613 -29.6613 0 2008.51 86.026)"><stop offset="0" stop-color="#0994dc"/><stop offset=".35" stop-color="#66cef5"/><stop offset=".35" stop-color="#66cef5"/><stop offset=".846" stop-color="#127bca"/><stop offset=".846" stop-color="#127bca"/><stop offset="1" stop-color="#127bca"/></linearGradient><linearGradient x2="1" id="c" gradientUnits="userSpaceOnUse" gradientTransform="matrix(0 -30.41722 -30.41722 0 2009.642 86.777)"><stop offset="0" stop-color="#0e76bc"/><stop offset=".36" stop-color="#36aee8"/><stop offset=".36" stop-color="#36aee8"/><stop offset=".846" stop-color="#00adef"/><stop offset=".846" stop-color="#00adef"/><stop offset="1" stop-color="#00adef"/></linearGradient><linearGradient x2="1" id="r" gradientUnits="userSpaceOnUse" gradientTransform="matrix(0 24.20256 24.20256 0 2015.755 62.94)"><stop offset="0" stop-color="#1c63b7"/><stop offset=".5" stop-color="#33bdf2"/><stop offset="1" stop-color="#33bdf2" stop-opacity=".42"/></linearGradient><linearGradient x2="1" id="d" gradientUnits="userSpaceOnUse" gradientTransform="matrix(0 -31.58095 -31.58095 0 2014.164 89.86)"><stop offset="0" stop-color="#166ab8"/><stop offset=".4" stop-color="#36aee8"/><stop offset=".4" stop-color="#36aee8"/><stop offset=".846" stop-color="#0798dd"/><stop offset=".846" stop-color="#0798dd"/><stop offset="1" stop-color="#0798dd"/></linearGradient><linearGradient x2="1" id="e" gradientUnits="userSpaceOnUse" gradientTransform="matrix(0 -33.58215 -33.58215 0 2011.675 89.693)"><stop offset="0" stop-color="#124379"/><stop offset=".39" stop-color="#1487cb"/><stop offset=".39" stop-color="#1487cb"/><stop offset=".78" stop-color="#165197"/><stop offset=".78" stop-color="#165197"/><stop offset="1" stop-color="#165197"/></linearGradient><linearGradient x2="1" id="o" gradientUnits="userSpaceOnUse" gradientTransform="matrix(0 23.57664 23.57664 0 2033.846 63.547)"><stop offset="0" stop-color="#136ab4"/><stop offset=".6" stop-color="#59caf5" stop-opacity=".549"/><stop offset="1" stop-color="#59caf5" stop-opacity=".235"/></linearGradient><linearGradient x2="1" id="f" gradientUnits="userSpaceOnUse" gradientTransform="matrix(0 24.14058 24.14058 0 1991.092 62.953)"><stop offset="0" stop-color="#318ed5"/><stop offset="1" stop-color="#38a7e4"/></linearGradient><linearGradient x2="1" id="n" gradientUnits="userSpaceOnUse" gradientTransform="matrix(0 23.46596 23.46596 0 1992.61 62.868)"><stop offset="0" stop-color="#05a1e6"/><stop offset="1" stop-color="#05a1e6" stop-opacity=".549"/></linearGradient><linearGradient x2="1" id="g" gradientUnits="userSpaceOnUse" gradientTransform="matrix(0 19.8291 19.8291 0 1993.873 61.67)"><stop offset="0" stop-color="#1959a6"/><stop offset=".5" stop-color="#05a1e6"/><stop offset=".5" stop-color="#05a1e6"/><stop offset=".918" stop-color="#7ec5ea"/><stop offset="1" stop-color="#7ec5ea"/></linearGradient><linearGradient x2="1" id="h" gradientUnits="userSpaceOnUse" gradientTransform="scale(21.83203) rotate(100 44.472 39.773)"><stop offset="0" stop-color="#165096"/><stop offset="1" stop-color="#0d82ca"/></linearGradient><linearGradient x2="1" id="i" gradientUnits="userSpaceOnUse" gradientTransform="matrix(0 11.23593 11.23593 0 2029.81 75.097)"><stop offset="0" stop-color="#05a1e6"/><stop offset=".874" stop-color="#0495d6"/><stop offset="1" stop-color="#0495d6"/></linearGradient><linearGradient x2="1" id="m" gradientUnits="userSpaceOnUse" gradientTransform="scale(26.30915) rotate(-100 40.07 -30.793)"><stop offset="0" stop-color="#38a7e4" stop-opacity=".329"/><stop offset=".962" stop-color="#0e88d3"/><stop offset=".962" stop-color="#0e88d3"/><stop offset="1" stop-color="#0e88d3"/></linearGradient><linearGradient x2="1" id="j" gradientUnits="userSpaceOnUse" gradientTransform="matrix(0 -24.51245 -24.51245 0 2031 86.462)"><stop offset="0" stop-color="#168cd4"/><stop offset=".5" stop-color="#1c87cc"/><stop offset="1" stop-color="#154b8d"/></linearGradient><linearGradient x2="1" id="l" gradientUnits="userSpaceOnUse" gradientTransform="scale(6.1127) rotate(-22.527 199.29 -814.197)"><stop offset="0" stop-color="#97d6ee"/><stop offset=".703" stop-color="#55c1ea"/><stop offset="1" stop-color="#55c1ea"/></linearGradient><linearGradient x2="1" id="k" gradientUnits="userSpaceOnUse" gradientTransform="matrix(4.45943 2.0216 2.0216 -4.45943 2003 84.154)"><stop offset="0" stop-color="#7accec"/><stop offset="1" stop-color="#3fb7ed"/></linearGradient><linearGradient x2="1" id="s" gradientUnits="userSpaceOnUse" gradientTransform="matrix(0 -23.97563 -23.97563 0 2027.682 85.106)"><stop offset="0" stop-color="#1da7e7"/><stop offset="1" stop-color="#37abe7" stop-opacity="0"/></linearGradient><linearGradient x2="1" id="J" xlink:href="#k" gradientUnits="userSpaceOnUse" gradientTransform="matrix(4.45943 2.0216 2.0216 -4.45943 2003 84.154)"/><linearGradient x2="1" id="I" xlink:href="#l" gradientUnits="userSpaceOnUse" gradientTransform="scale(6.1127) rotate(-22.527 199.29 -814.197)"/><linearGradient xlink:href="#s" id="K" gradientUnits="userSpaceOnUse" gradientTransform="rotate(90 113.834 120.332) scale(121.0325)" x2="1"/><linearGradient xlink:href="#j" id="H" gradientUnits="userSpaceOnUse" gradientTransform="rotate(90 125.63 125.287) scale(123.74243)" x2="1"/><linearGradient xlink:href="#m" id="G" gradientUnits="userSpaceOnUse" gradientTransform="scale(132.81243) rotate(100 1.038 .84)" x2="1"/><linearGradient xlink:href="#i" id="F" gradientUnits="userSpaceOnUse" gradientTransform="rotate(-90 150.966 -93.937) scale(56.72062)" x2="1"/><linearGradient xlink:href="#h" id="E" gradientUnits="userSpaceOnUse" gradientTransform="scale(110.21127) rotate(-100 .756 .28)" x2="1"/><linearGradient xlink:href="#g" id="D" gradientUnits="userSpaceOnUse" gradientTransform="rotate(-90 94.15 30.655) scale(100.1002)" x2="1"/><linearGradient xlink:href="#n" id="C" gradientUnits="userSpaceOnUse" gradientTransform="rotate(-90 87.943 30.817) scale(118.4596)" x2="1"/><linearGradient xlink:href="#f" id="B" gradientUnits="userSpaceOnUse" gradientTransform="matrix(0 -121.8652 121.8652 0 49.455 118.332)" x2="1"/><linearGradient xlink:href="#p" id="A" gradientUnits="userSpaceOnUse" gradientTransform="translate(-3786.54 -8320.135) scale(4.0385)" x1="937.661" y1="2075.999" x2="959.674" y2="2075.999"/><linearGradient xlink:href="#o" id="z" gradientUnits="userSpaceOnUse" gradientTransform="scale(119.0183) rotate(-90 1.6 -.63)" x2="1"/><linearGradient xlink:href="#q" id="y" gradientUnits="userSpaceOnUse" gradientTransform="translate(-3786.54 -8320.135) scale(4.0385)" x1="958.722" y1="2068.957" x2="964.657" y2="2068.957"/><linearGradient xlink:href="#e" id="x" gradientUnits="userSpaceOnUse" gradientTransform="rotate(90 85.01 68.352) scale(169.5276)" x2="1"/><linearGradient xlink:href="#d" id="w" gradientUnits="userSpaceOnUse" gradientTransform="scale(159.4252) rotate(90 .575 .466)" x2="1"/><linearGradient xlink:href="#r" id="v" gradientUnits="userSpaceOnUse" gradientTransform="matrix(0 -122.178 122.178 0 173.958 118.396)" x2="1"/><linearGradient xlink:href="#c" id="u" gradientUnits="userSpaceOnUse" gradientTransform="scale(153.5506) rotate(90 .472 .46)" x2="1"/><linearGradient xlink:href="#b" id="t" gradientUnits="userSpaceOnUse" gradientTransform="matrix(0 149.7346 -149.7346 0 137.388 1.854)" x2="1"/></defs><path d="M260.89 113.2h-2.796v8.693h-1.14V113.2h-2.807v-1.035h6.744v1.035zM272.342 121.89h-1.135v-6.53c0-.516.04-1.147.093-1.89-.117.445-.214.753-.303.95l-3.312 7.47h-.555l-3.322-7.414c-.097-.206-.193-.54-.298-1.005h-.04c.04.393.053 1.026.053 1.904v6.517h-1.09v-9.726h1.503l2.984 6.79c.226.51.367.903.44 1.165h.043c.198-.536.36-.935.47-1.197l3.044-6.76h1.433v9.728zM263.488 158.007c0-.53-.145-.91-.444-1.157-.33-.266-.904-.408-1.7-.408h-1.147v3.15h1.383c1.278 0 1.908-.53 1.908-1.585m1.787 6.568H263.7l-1.004-2.217c-.51-1.11-1.055-1.666-1.65-1.666h-.85v3.883H258.9v-9.24h2.6c1.156 0 2.024.252 2.62.774.504.448.757 1.024.757 1.74 0 .637-.206 1.172-.62 1.616-.405.45-.986.752-1.728.91v.04c.514.12 1.03.685 1.53 1.705l1.215 2.46zm2.878-4.53c0-1.816-.62-3.35-1.858-4.567-1.242-1.217-2.756-1.828-4.543-1.828-1.843 0-3.377.61-4.594 1.838-1.217 1.232-1.822 2.756-1.822 4.558 0 1.843.63 3.383 1.883 4.61 1.236 1.226 2.75 1.832 4.532 1.832 1.772 0 3.286-.61 4.533-1.853 1.247-1.222 1.868-2.756 1.868-4.59m.873-.04c0 2.04-.7 3.752-2.11 5.13-1.408 1.39-3.135 2.08-5.2 2.08-2.08 0-3.806-.68-5.18-2.02-1.372-1.357-2.053-3.063-2.053-5.133 0-2.025.696-3.726 2.09-5.124 1.393-1.393 3.13-2.09 5.204-2.09 2.034 0 3.74.667 5.124 1.994 1.42 1.363 2.126 3.08 2.126 5.164M71.58 185.767h-4.477v-25.625c0-2.024.133-4.487.37-7.395h-.1c-.42 1.7-.803 2.933-1.14 3.695l-13.015 29.325h-2.18l-13.04-29.113c-.368-.813-.752-2.12-1.14-3.907h-.098c.138 1.53.214 4.008.214 7.446v25.574h-4.316v-38.16h5.906l11.707 26.61c.884 2.004 1.455 3.528 1.732 4.568h.186c.762-2.085 1.368-3.65 1.828-4.68l11.958-26.497h5.604v38.16zM85.354 185.766h-4.35v-27.25h4.35v27.25zm.752-37.02c0 .804-.283 1.475-.843 2.026-.55.55-1.232.828-2.03.828-.777 0-1.453-.267-2.008-.798-.556-.535-.83-1.217-.83-2.055 0-.787.276-1.458.83-2.004.555-.545 1.23-.807 2.008-.807.798 0 1.48.262 2.03.807.56.546.843 1.217.843 2.004M112.547 184.505c-2.09 1.282-4.583 1.918-7.466 1.918-3.906 0-7.05-1.297-9.454-3.887-2.332-2.514-3.508-5.76-3.508-9.738 0-4.463 1.277-8.077 3.85-10.823 2.56-2.75 6.004-4.124 10.335-4.124 2.367 0 4.467.465 6.305 1.384v4.478c-2.034-1.43-4.185-2.136-6.492-2.136-2.776 0-5.033.97-6.785 2.903-1.82 1.978-2.745 4.623-2.745 7.924 0 3.17.843 5.68 2.52 7.532 1.68 1.843 3.917 2.767 6.738 2.767 2.383 0 4.614-.783 6.704-2.343v4.145zM133.36 162.937c-.766-.59-1.872-.88-3.33-.88-1.772 0-3.262.794-4.468 2.394-1.368 1.788-2.05 4.262-2.05 7.422v13.892h-4.36v-27.25h4.36v5.62h.105c.642-1.99 1.63-3.52 2.954-4.605 1.237-.99 2.636-1.49 4.175-1.49 1.16 0 2.025.125 2.615.37v4.525zM157.67 172.19c0-3.488-.787-6.153-2.362-7.98-1.53-1.758-3.665-2.636-6.416-2.636-2.71 0-4.887.888-6.513 2.665-1.722 1.898-2.58 4.578-2.58 8.056 0 3.26.818 5.82 2.468 7.648 1.64 1.838 3.852 2.756 6.624 2.756 2.867 0 5.063-.933 6.567-2.79 1.473-1.818 2.21-4.388 2.21-7.72m4.473-.153c0 4.34-1.227 7.83-3.67 10.444-2.453 2.626-5.755 3.94-9.904 3.94-4.09 0-7.347-1.314-9.734-3.94-2.338-2.528-3.514-5.87-3.514-10.024 0-4.74 1.328-8.395 3.993-10.99 2.464-2.408 5.76-3.62 9.89-3.62 4.063 0 7.24 1.267 9.525 3.776 2.267 2.524 3.413 5.998 3.413 10.415M183.773 178.475c0 2.232-.832 4.08-2.503 5.553-1.823 1.595-4.326 2.393-7.476 2.393-2.58 0-4.842-.54-6.76-1.64v-4.69c2.135 1.737 4.493 2.61 7.083 2.61 3.453 0 5.184-1.27 5.184-3.806 0-1.065-.38-1.948-1.145-2.63-.767-.697-2.257-1.53-4.473-2.504-2.28-1-3.907-2.024-4.866-3.09-1.15-1.26-1.732-2.902-1.732-4.92 0-2.263.904-4.146 2.69-5.645 1.793-1.504 4.095-2.256 6.922-2.256 2.166 0 4.104.423 5.826 1.276v4.392c-1.798-1.298-3.852-1.944-6.184-1.944-1.444 0-2.605.36-3.468 1.06-.874.717-1.313 1.63-1.313 2.746 0 1.207.367 2.146 1.096 2.817.646.62 2.02 1.378 4.09 2.262 2.326.973 4.007 1.983 5.03 3.017 1.33 1.308 2 2.974 2 4.998M210.43 172.19c0-3.488-.788-6.153-2.368-7.98-1.525-1.758-3.665-2.636-6.41-2.636-2.712 0-4.888.888-6.523 2.665-1.718 1.898-2.57 4.578-2.57 8.056 0 3.26.817 5.82 2.452 7.648 1.66 1.838 3.872 2.756 6.64 2.756 2.87 0 5.062-.933 6.566-2.79 1.474-1.818 2.21-4.388 2.21-7.72m4.484-.153c0 4.34-1.237 7.83-3.685 10.444-2.443 2.626-5.745 3.94-9.894 3.94-4.094 0-7.35-1.314-9.738-3.94-2.338-2.528-3.514-5.87-3.514-10.024 0-4.74 1.34-8.395 3.99-10.99 2.463-2.408 5.764-3.62 9.9-3.62 4.063 0 7.233 1.267 9.515 3.776 2.27 2.524 3.427 5.998 3.427 10.415M234.132 149.256c-.858-.474-1.812-.716-2.898-.716-3.054 0-4.57 1.923-4.57 5.775v4.2h6.387v3.695h-6.385v23.555H222.3V162.21h-4.635v-3.695h4.634v-4.417c0-3 .918-5.352 2.786-7.048 1.6-1.474 3.558-2.206 5.886-2.206 1.348 0 2.398.162 3.16.475v3.936zM251.347 185.49c-1.03.592-2.403.885-4.1.885-4.755 0-7.132-2.68-7.132-8.042v-16.12h-4.675v-3.7h4.675v-6.648c1.393-.44 2.842-.918 4.372-1.413v8.062h6.86v3.7h-6.86v15.377c0 1.828.298 3.135.923 3.893.63.782 1.66 1.166 3.115 1.166 1.085 0 2.024-.292 2.822-.88v3.72zM15.558 292.118c0 2.135-.762 3.983-2.302 5.543-1.534 1.556-3.397 2.34-5.583 2.34-2.135 0-3.953-.784-5.442-2.34C.743 296.1 0 294.254 0 292.12c0-2.195.742-4.048 2.23-5.583 1.49-1.54 3.308-2.302 5.443-2.302 2.186 0 4.05.773 5.583 2.332 1.54 1.56 2.302 3.413 2.302 5.553M113.218 298.394H98.993l-51.638-79.746c-1.206-1.918-2.246-4.003-3.13-6.28H43.8c.368 2.136.557 6.72.557 13.742v72.284H32.63v-100.05h15.22l50.093 78.49c1.994 3.114 3.356 5.345 4.048 6.688h.28c-.465-2.878-.707-7.784-.707-14.71v-70.467h11.656v100.05zM188.398 298.394h-53.026v-100.05h50.724v10.602H147.09v33.282h36.144v10.606H147.09v34.954h41.308v10.606zM268.828 208.947h-28.82v89.448h-11.72v-89.448H199.41V198.34h69.418v10.607z" fill="#2f356a"/><path d="M109.242 25.537c11.312 34.595 15.598 96.31 48.68 96.31 2.518 0 5.062-.247 7.616-.733-30.07-7.012-33.635-68.055-51.985-99.666-1.44 1.308-2.868 2.67-4.31 4.09" fill="url(#t)"/><path d="M113.553 21.448c18.35 31.611 21.914 92.654 51.985 99.666 2.363-.434 4.73-1.09 7.103-1.92-26.99-13.225-34.452-72.5-55.29-101.037-1.263 1.05-2.53 2.15-3.797 3.29" fill="url(#u)"/><path d="M139.992 2.648c-2.514 0-5.064.247-7.623.732-6.695 1.262-13.494 4.145-20.35 8.506 1.873 1.848 3.655 3.963 5.33 6.27 6.972-5.785 13.9-10.06 20.8-12.63 2.59-.96 5.17-1.68 7.758-2.156-1.867-.475-3.836-.722-5.916-.722" fill="#14559a"/><path d="M193.712 107.004c2.76-2.196 5.528-4.624 8.3-7.274C190.516 65.296 186.4 2.7 153.09 2.7c-2.383 0-4.786.22-7.184.665 30.345 7.548 34.232 73.567 47.806 103.64" fill="url(#v)"/><path d="M145.907 3.368c-1.868-.475-3.836-.722-5.916-.722l13.1.048c-2.382 0-4.785.222-7.183.672" fill="#3092c4"/><path d="M193.13 114.32c-1.302-1.243-2.54-2.606-3.755-4.06-5.604 3.968-11.187 6.977-16.735 8.935 1.974.965 4.043 1.682 6.24 2.126 1.7.348 3.463.526 5.315.526 6.225 0 11.146-.737 15.336-2.746-2.305-1.247-4.42-2.863-6.4-4.78" fill="#1969bc"/><path d="M138.147 5.53c27.18 14.217 29.542 78.59 51.23 104.73 1.453-1.024 2.89-2.11 4.33-3.256-13.574-30.072-17.456-96.097-47.796-103.64-2.588.486-5.173 1.203-7.763 2.167" fill="url(#w)"/><path d="M117.35 18.157c20.838 28.537 28.3 87.812 55.29 101.038 5.55-1.958 11.132-4.967 16.736-8.935-21.687-26.14-24.05-90.513-51.23-104.73-6.9 2.566-13.826 6.84-20.797 12.627" fill="url(#x)"/><path d="M95.91 24.704c-3.267 7.386-6.604 17.093-10.638 29.764 8.022-11.303 16.018-21.04 23.97-28.93-1.096-3.368-2.273-6.472-3.54-9.24-3.25 2.49-6.527 5.292-9.793 8.406" fill="url(#y)"/><path d="M108.6 14.17c-.96.686-1.925 1.388-2.894 2.13 1.267 2.766 2.438 5.87 3.534 9.238 1.443-1.414 2.877-2.782 4.31-4.09-1.54-2.645-3.175-5.088-4.95-7.28" fill="#2b74b1"/><path d="M112.02 11.886c-1.14.723-2.276 1.485-3.422 2.282 1.777 2.19 3.412 4.634 4.957 7.285 1.267-1.146 2.534-2.252 3.796-3.297-1.675-2.307-3.457-4.422-5.33-6.27" fill="#125a9e"/><path d="M297.406.014c-15.372 59.28-47.478 106.894-74.394 118.9h-.05c-.49.22-.976.423-1.455.62-.066.04-.126.044-.177.068-.142.057-.273.1-.414.158-.066.04-.126.053-.187.077-.228.08-.45.15-.672.238-.096.04-.187.065-.278.097-.1.04-.217.077-.333.11-.1.04-.207.068-.323.112-.096.04-.197.057-.288.097-.197.058-.378.106-.575.175-.08 0-.156.044-.242.065-.12.04-.257.07-.388.105-.09.04-.167.053-.263.073-.136.04-.288.077-.424.11-.182.04-.343.076-.515.112 1.217.45 2.484.676 3.852.676 25.523 0 51.258-45.74 93.84-121.806H297.4z" fill="url(#z)"/><path d="M79.73 5.054c.016 0 .036-.04.046-.04.02 0 .05 0 .06-.04h.033c.14-.048.27-.105.412-.158.036 0 .055 0 .08-.04.037 0 .072-.04.108-.044.15-.048.303-.105.444-.158h.024c.338-.1.65-.226.98-.343.045 0 .09-.04.145-.04.137-.043.278-.092.42-.124.065-.04.13-.04.19-.06.147-.045.29-.094.425-.127.06 0 .117-.04.162-.045.47-.13.934-.25 1.403-.363.066 0 .12-.04.192-.044.136-.04.263-.06.41-.08.06-.04.13-.04.2-.062.137-.04.268-.044.415-.077h.096c.283-.058.57-.106.853-.16H87c.137-.04.258-.043.394-.068.075 0 .152-.04.223-.04.126 0 .252-.04.378-.057.066 0 .13 0 .207-.04.298-.04.606-.056.92-.08-.885-.086-1.793-.142-2.717-.142-28.744 0-68.347 53.334-86.187 122.402h3.438c5.71-10.182 10.838-19.814 15.528-28.855C31.678 47.25 57.126 13.885 79.73 5.046" fill="url(#A)"/><path d="M95.91 24.704c3.265-3.114 6.542-5.916 9.793-8.405-.742-1.626-1.51-3.13-2.333-4.51-2.63 3.192-5.033 7.402-7.46 12.914" fill="#0d82ca"/><path d="M98.27 5.458c1.878 1.575 3.56 3.74 5.1 6.336.484-.596.974-1.146 1.483-1.66-2.135-1.995-4.442-3.63-6.946-4.862.1.056.202.1.307.145 0 0 .04.04.057.04" fill="#0d82ca"/><path d="M19.183 96.176C45.393 45.67 57.81 13.704 79.73 5.052c-22.6 8.844-48.053 42.207-60.547 91.124" fill="url(#B)"/><path d="M104.852 10.132c-.51.52-.995 1.065-1.485 1.66.823 1.38 1.59 2.878 2.338 4.508.97-.74 1.933-1.443 2.892-2.13-1.186-1.464-2.438-2.822-3.745-4.038" fill="#127bca"/><path d="M31.08 124.804c-.16.04-.322.04-.473.057h-.09c-.138 0-.28.04-.405.04h-.066c-.328.04-.65.04-.964.066h-.1c26.527-.742 38.652-14.024 44.67-33.288 4.573-14.604 8.33-26.906 11.62-37.23C74.163 70.088 63 88.73 51.78 109.614c-5.41 10.066-13.64 14.27-20.697 15.17" fill="url(#C)"/><path d="M31.08 124.794c7.058-.9 15.287-5.1 20.698-15.17C63 88.744 74.168 70.097 85.268 54.458c4.038-12.676 7.37-22.378 10.64-29.764-22.125 21.06-44.337 56.08-64.827 100.09" fill="url(#D)"/><path d="M19.18 96.177c-4.688 9.04-9.817 18.673-15.527 28.855h10c1.323-10.11 3.2-19.753 5.528-28.85" fill="#05a1e6"/><path d="M88.2 2.87c-.08 0-.14.04-.21.04-.122.04-.25.04-.375.054-.075 0-.146 0-.222.04-.136.04-.262.044-.394.07-.062 0-.122 0-.172.04-.288.047-.57.1-.853.15h-.096c-.148.04-.28.06-.415.08-.07.04-.142.04-.208.056-.136.04-.272.057-.403.08-.07.04-.126.04-.192.045-.47.113-.934.234-1.404.363-.05 0-.1.04-.16.048-.142.04-.28.08-.425.125-.06.04-.13.04-.192.057-.14.04-.282.08-.418.126-.055 0-.1.04-.15.04-.325.12-.643.242-.976.343-.14.044-.293.1-.444.153-.06.04-.116.048-.187.076-.14.044-.282.1-.414.154-.05.04-.1.044-.135.065-21.92 8.652-34.337 40.617-60.547 91.124-2.327 9.096-4.21 18.738-5.528 28.85h1.404c3.952 0 5.068-.04 9.616-.04H29.105c.313-.04.636-.04.965-.066h.06c.137 0 .273-.04.404-.04h.096c.146 0 .313-.04.474-.057 20.49-44.01 42.702-79.03 64.828-100.09 2.434-5.512 4.832-9.723 7.457-12.908-1.534-2.595-3.215-4.766-5.093-6.342 0 0-.05 0-.055-.04-.106-.044-.207-.097-.313-.15-.107-.056-.198-.1-.31-.156-.095-.04-.206-.093-.302-.146-.13-.04-.237-.097-.353-.15-.096-.04-.182-.08-.278-.12-.197-.077-.393-.158-.58-.243-.086-.04-.167-.06-.248-.093-.137-.05-.294-.113-.435-.173-.07-.04-.15-.048-.232-.077-.207-.07-.41-.142-.6-.206h-.05c-.233-.077-.46-.134-.698-.198-.055-.04-.1-.04-.156-.048-.208-.057-.39-.113-.587-.166-.05 0-.096-.04-.136-.04-.474-.125-.964-.226-1.46-.32-.05 0-.1-.04-.15-.04-.212-.04-.42-.076-.63-.1-.052-.04-.082-.04-.127-.04-.252-.04-.5-.07-.747-.097h-.13c-.203-.04-.39-.044-.577-.065-.318.04-.62.057-.92.085" fill="url(#E)"/><path d="M237.363 32.832c-5.043 16.154-9.127 29.48-12.68 40.445 13.836-19.04 27.466-42.995 40.445-70.638-15.14 4.754-23.216 15.638-27.765 30.192" fill="url(#F)"/><path d="M225.122 117.903c-.707.36-1.414.702-2.11 1.01 26.916-12.005 59.022-59.62 74.394-118.9h-3.115c-35.315 63.087-46.674 105.32-69.168 117.89" fill="url(#G)"/><path d="M207.545 112.603c5.856-7.148 10.627-19.3 17.14-39.325-7.513 10.318-15.075 19.188-22.642 26.422 0 .04 0 .04-.04.065 1.65 4.947 3.463 9.313 5.528 12.837" fill="#079ae1"/><path d="M207.545 112.603c-1.994 2.433-4.104 4.286-6.45 5.66-.516.298-1.036.58-1.566.837 2.478 1.338 5.183 2.23 8.212 2.59.444.044.883.085 1.343.117h.08c.207 0 .425 0 .647.04h2.19c.08 0 .165 0 .246-.04.157 0 .323 0 .485-.04h.237c.167 0 .35-.04.526-.057h.04c.053 0 .11-.04.162-.04.186-.04.38-.057.56-.085h.166c.206-.04.42-.065.63-.105H215.157c.424-.08.838-.162 1.257-.267-3.474-1.272-6.38-4.27-8.885-8.54" fill="#1969bc"/><path d="M157.92 121.847c2.52 0 5.065-.247 7.62-.737 2.362-.43 4.73-1.086 7.102-1.914 1.974.965 4.043 1.682 6.234 2.126 1.7.347 3.468.525 5.32.525h-26.275z" fill="#1e5cb3"/><path d="M184.198 121.847c6.22 0 11.146-.737 15.33-2.746 2.48 1.338 5.185 2.232 8.214 2.59.444.044.884.085 1.343.117h.08c.207 0 .425 0 .647.04h.755-26.387z" fill="#1e5cb3"/><path d="M210.582 121.847H212.02c.086 0 .167 0 .248-.04.157 0 .323 0 .49-.04h.239c.166 0 .348-.04.52-.056h.044c.053 0 .105-.04.158-.04.186-.04.38-.055.56-.084.06 0 .11 0 .174-.04.206-.04.42-.06.63-.1H215.185c.424-.082.838-.163 1.257-.268 1.217.45 2.485.677 3.852.677l-9.702.04z" fill="#1d60b5"/><path d="M202.02 99.766v-.04c-2.772 2.65-5.54 5.078-8.3 7.274-1.444 1.146-2.882 2.23-4.336 3.256 1.216 1.454 2.453 2.817 3.756 4.06 1.98 1.917 4.093 3.533 6.4 4.78.526-.26 1.05-.54 1.56-.84 2.353-1.372 4.463-3.224 6.457-5.657-2.065-3.525-3.877-7.892-5.528-12.84" fill="#175fab"/><path d="M284.427.014H268.75c-.848.04-1.67.07-2.483.12-.384.824-.778 1.647-1.157 2.475-12.978 27.642-26.608 51.596-40.445 70.638-6.507 20.025-11.283 32.176-17.14 39.325 2.505 4.27 5.418 7.274 8.88 8.546.102-.04.183-.04.274-.062h.055c.06 0 .126-.04.192-.04.14-.04.292-.065.434-.11.092-.04.167-.043.258-.072.132-.04.268-.07.39-.1.08-.04.16-.054.24-.07.203-.065.385-.113.577-.174.09-.04.187-.073.288-.097.11-.04.222-.07.323-.117.116-.04.232-.06.333-.105.09-.04.185-.065.27-.1.228-.082.45-.15.678-.24.06 0 .12-.055.187-.068.136-.057.277-.1.414-.162.05-.04.11-.044.175-.065.475-.198.964-.4 1.454-.62h.05c.697-.307 1.404-.652 2.105-1.01 22.5-12.57 33.858-54.803 69.175-117.89h-9.864z" fill="url(#H)"/><path d="M89.12 2.786c.057 0 .107 0 .162.04.136 0 .273 0 .41.044h.136c.247.04.494.06.747.097.046 0 .086 0 .126.04.207.04.42.073.632.105.046 0 .106.04.156.04.485.097.98.198 1.454.323.045 0 .09.04.132.04.2.048.383.11.585.166.06 0 .105.04.16.05.238.06.46.12.692.198.01 0 .024 0 .05.04.198.06.4.137.607.205.08.04.155.057.23.077.143.06.3.122.435.178.08 0 .162.056.247.085.187.085.384.162.576.242.1.04.187.085.283.122.112.057.228.11.35.15.1.047.21.1.307.144.106.058.206.102.308.16 2.504 1.23 4.81 2.87 6.946 4.86.788-.827 1.61-1.57 2.464-2.236-4.67-3.312-9.96-5.2-16.063-5.2-.706 0-1.412.04-2.13.093" fill="#7dcbec"/><path d="M104.852 10.132c1.307 1.216 2.56 2.574 3.745 4.038 1.146-.797 2.282-1.565 3.423-2.282-1.494-1.494-3.07-2.837-4.71-3.993-.853.662-1.67 1.41-2.458 2.237" fill="#5ec5ed"/><path d="M1998.95 85.842c.14.012.28.017.42.017 1.21 0 2.258-.375 3.183-1.03.976.77 2.156 1.04 3.795 1.04h-7.937c.184 0 .363-.012.54-.028" fill="url(#I)" transform="matrix(5.048 0 0 -5.048 -10001.867 436.128)"/><path d="M2006.348 85.87c-1.64 0-2.82-.27-3.795-1.04.324-.23.636-.495.932-.79 1.36.863 2.705 1.435 4.032 1.685.506.095 1.01.144 1.51.144h-2.68z" fill="url(#J)" transform="matrix(5.048 0 0 -5.048 -10001.867 436.128)"/><path d="M224.683 73.288c3.558-10.975 7.632-24.297 12.685-40.456 4.554-14.56 12.616-25.443 27.755-30.193.4-.814.778-1.652 1.167-2.475-24.68 1.48-36.216 14.034-42.02 32.626-10.153 32.46-16.302 53.502-22.223 66.91 7.562-7.23 15.124-16.104 22.636-26.412" fill="url(#K)"/></svg>