<?xml version="1.0" encoding="UTF-8" standalone="no"?>
<svg
   xmlns:dc="http://purl.org/dc/elements/1.1/"
   xmlns:cc="http://creativecommons.org/ns#"
   xmlns:rdf="http://www.w3.org/1999/02/22-rdf-syntax-ns#"
   xmlns:svg="http://www.w3.org/2000/svg"
   xmlns="http://www.w3.org/2000/svg"
   xmlns:sodipodi="http://sodipodi.sourceforge.net/DTD/sodipodi-0.dtd"
   xmlns:inkscape="http://www.inkscape.org/namespaces/inkscape"
   version="1.1"
   id="Layer_1"
   x="0px"
   y="0px"
   width="512px"
   height="512px"
   viewBox="0 0 512 512"
   enable-background="new 0 0 512 512"
   xml:space="preserve"
   inkscape:version="0.48.4 r9939"
   sodipodi:docname="HTML5_1Color_Black.svg"><metadata
   id="metadata3081"><rdf:RDF><cc:Work
       rdf:about=""><dc:format>image/svg+xml</dc:format><dc:type
         rdf:resource="http://purl.org/dc/dcmitype/StillImage" /><dc:title></dc:title></cc:Work></rdf:RDF></metadata><defs
   id="defs3079">
	
	
	
	
</defs><sodipodi:namedview
   pagecolor="#ffffff"
   bordercolor="#666666"
   borderopacity="1"
   objecttolerance="10"
   gridtolerance="10"
   guidetolerance="10"
   inkscape:pageopacity="0"
   inkscape:pageshadow="2"
   inkscape:window-width="1920"
   inkscape:window-height="1153"
   id="namedview3077"
   showgrid="false"
   inkscape:zoom="0.921875"
   inkscape:cx="154.97053"
   inkscape:cy="439.54973"
   inkscape:window-x="1362"
   inkscape:window-y="-4"
   inkscape:window-maximized="1"
   inkscape:current-layer="Layer_1" />
<g
   id="g3057"
   style="fill:#2f356a;fill-opacity:1">
		<path
   style="fill:#2f356a;fill-opacity:1"
   inkscape:connector-curvature="0"
   id="path3059"
   d="m 119.387,20.312 h 21.298 V 41.357 H 160.17 V 20.312 h 21.303 V 84.039 H 160.17 V 62.7 H 140.685 V 84.038 H 119.387 V 20.312 z" />
		<path
   style="fill:#2f356a;fill-opacity:1"
   inkscape:connector-curvature="0"
   id="path3061"
   d="M 209.482,41.444 H 190.728 V 20.312 h 58.812 v 21.133 h -18.759 v 42.594 h -21.3 V 41.444 z" />
		<path
   style="fill:#2f356a;fill-opacity:1"
   inkscape:connector-curvature="0"
   id="path3063"
   d="m 258.879,20.312 h 22.21 l 13.661,22.392 13.648,-22.392 h 22.219 V 84.039 H 309.405 V 52.453 L 294.75,75.111 h -0.366 L 279.719,52.453 v 31.585 h -20.84 V 20.312 z" />
		<path
   style="fill:#2f356a;fill-opacity:1"
   inkscape:connector-curvature="0"
   id="path3065"
   d="m 341.219,20.312 h 21.308 v 42.664 h 29.955 V 84.038 H 341.219 V 20.312 z" />
	</g><path
   style="fill:#2f356a;fill-opacity:1"
   inkscape:connector-curvature="0"
   id="path3067"
   d="M 200.662,266.676 H 256 v -42.92 h -59.169 l 3.831,42.92 z M 88.686,111.982 l 30.47,341.74 136.762,37.966 136.891,-37.948 30.507,-341.758 H 88.686 z M 366.694,431.981 256,462.668 v -43.494 l -0.067,0.02 -85.858,-23.835 -6.004,-67.298 h 42.075 l 3.116,34.914 46.68,12.607 0.059,-0.019 V 308.59 H 162.332 L 151.026,181.841 H 256 v -41.914 h 136.766 l -26.072,292.054 z" /><path
   style="opacity:0.80000000000000004;fill:#2f356a;fill-opacity:1"
   inkscape:connector-curvature="0"
   id="path3069"
   d="M 307.592,308.59 H 256 v 66.974 l 46.728,-12.613 4.864,-54.361 z M 256,139.927 v 41.914 h 104.975 l -3.754,41.915 H 256 v 42.92 h 97.406 L 341.907,395.359 256,419.174 v 43.494 L 366.694,431.981 392.765,139.926 H 256 z" /><g
   style="opacity:0.2"
   id="g3071">
		<polygon
   style="fill:#231f20"
   id="polygon3073"
   points="162.331,308.59 256,308.59 256,266.676 200.662,266.676 196.831,223.756 256,223.756 256,181.841 151.025,181.841 " />
		<polygon
   style="fill:#231f20"
   id="polygon3075"
   points="209.262,362.975 206.146,328.061 164.07,328.061 170.074,395.358 255.933,419.193 256,419.174 256,375.563 255.941,375.582 " />
	</g>
</svg>