<svg xmlns="http://www.w3.org/2000/svg" xmlns:xlink="http://www.w3.org/1999/xlink" width="400" height="382.4" viewBox="0 0 400 382.4"><path fill="#2C3E50" d="M378.5 0H130.9c-11.9 0-21.5 8.4-21.5 18.8v344.9c0 10.4 9.6 18.8 21.5 18.8h247.6c11.9 0 21.5-8.4 21.5-18.8V18.8C400 8.4 390.4 0 378.5 0zm-3.7 320.2H137V38.4h237.8v281.8z"/><path fill="#434B96" d="M137 38h237.8v283H137z"/><path fill="#818A95" d="M240.2 352.1c0-8 6.5-14.5 14.5-14.5s14.4 6.5 14.4 14.5-6.5 14.4-14.4 14.4c-8 0-14.5-6.4-14.5-14.4z"/><path opacity=".37" fill="#6B8EB0" d="M252.1 21.9c0-2.1 1.7-3.8 3.9-3.8 2.1 0 3.8 1.7 3.8 3.8 0 2.1-1.7 3.9-3.8 3.9-2.2 0-3.9-1.8-3.9-3.9z"/><path fill="#FFF" d="M296.6 286.5c-6 9.1-12 13.6-17.9 13.6-2.4 0-5.6-.8-9.7-2.2-4.1-1.5-7.7-2.2-10.5-2.2s-6.1.8-9.9 2.3c-3.8 1.602-6.898 2.4-9.2 2.4-7.198 0-14.1-6.1-21-18-6.8-12-10.198-23.6-10.198-35 0-10.7 2.6-19.3 7.9-26 5.2-6.7 11.8-10 19.8-10 3.4 0 7.4.7 12.3 2.1 4.8 1.4 8 2.102 9.6 2.102 2 0 5.4-.8 10-2.4 4.6-1.5 8.6-2.4 12-2.4 5.6 0 10.5 1.5 14.8 4.5 2.4 1.7 4.9 4 7.2 7-3.6 3.1-6.3 5.8-7.9 8.2-3 4.3-4.5 9.1-4.5 14.4 0 5.7 1.6 10.9 4.8 15.5 3.2 4.6 6.9 7.5 11 8.8C303.4 274.6 300.6 280.4 296.6 286.5zM277 196.9c-1.4 3.5-3.6 6.7-6.5 9.6-2.5 2.5-5 4.2-7.5 5-1.6.5-4 .9-7.2 1.2.1-6.9 1.9-12.9 5.4-17.9s9.3-8.4 17.4-10.3c.1.6.3 1.1.3 1.5 0 .5.1.9.1 1.4 0 2.9-.7 6.1-2 9.5z"/><path opacity=".2" d="M136 86.4l36.3 2.1 167.2 293.9H136"/><path opacity=".1" d="M186.9 173.2l115.9 209.3-129.4.1.6-162.5"/><path fill="#243648" d="M174 363.7c0 10.4-8.4 18.8-18.8 18.8H18.8C8.4 382.4 0 374 0 363.7V96c0-10.4 8.4-18.8 18.8-18.8h136.5c10.4 0 18.8 8.4 18.8 18.8v267.7h-.1z"/><path fill="#818A95" d="M99.5 372.4c8.8 0 12-12.1 5-12.1H69.7c-7 0-3.8 12.1 5 12.1h24.8z"/><circle opacity=".37" fill="#6B8EB0" cx="87" cy="89.2" r="3.8"/><path opacity=".36" fill="#272F37" d="M8.3 97.2H168v257.3H8.3z"/><path fill="#434B96" d="M12.1 101.8h152.1V350H12.1z"/><defs><path id="a" d="M11.9 102.2h152.2v247.5H11.9z"/></defs><clipPath id="b"><use xlink:href="#a" overflow="visible"/></clipPath><path opacity=".25" clip-path="url(#b)" d="M156.7 145.3L231.6 260l-1.9 49.5s9.3 93.8-42 85l-165.5-2.6 21.9-81.7 18.1-25.5 45.2-65.4 12.1-26.2 4.4-21.2 10.5-11.9 22.3-14.7z"/><defs><path id="c" d="M11.9 102.2h152.2v247.5H11.9z"/></defs><clipPath id="d"><use xlink:href="#c" overflow="visible"/></clipPath><path clip-path="url(#d)" fill="#D9D9D9" d="M55.5 311.9l78-83.9c27.6 2.6 36.9-3.2 45-12 13.3-14.3 10.5-32.5 8.4-42.6l-27.1 28.2c-1.8 1.9-4.8 2-6.7.2L142 191.5l-11.1-10.3c-1.9-1.8-2.1-4.8-.3-6.7l26.2-29.1c-10.3-1.4-28.6-2.8-41.9 11.5-8.3 8.9-12.9 18.3-8.9 44.1l-79.4 85.5C9 285-5.2 286-16.8 298.5c-13.3 14.3-10.5 32.5-8.4 42.6l27.1-28.2c1.8-1.9 4.8-2 6.7-.2L19.7 323l11.1 10.3c1.9 1.8 2.1 4.8.3 6.7L5 369.2c10.1 1.3 27.9 2.8 41.2-10.8 8.8-9 14-19.1 9.3-46.5z"/><defs><path id="e" d="M11.9 102.2h152.2v247.5H11.9z"/></defs><clipPath id="f"><use xlink:href="#e" overflow="visible"/></clipPath><path opacity=".3" clip-path="url(#f)" fill="#7E8C8D" d="M34.7 303.6l-6.9-6.4 82.4-88.6 6.8 6.3"/><path fill="#D9D9D9" d="M186.9 173.2l-27.1 28.2c-1.8 1.9-4.8 2-6.7.2L142 191.3 130.9 181c-1.9-1.8-2.1-4.8-.3-6.7l26.2-29.1c-10.3-1.4-28.6-2.8-41.9 11.5-8.3 8.9-12.9 18.3-8.9 44.1l-11.2 12.1c10.3 7.8 20.4 15.7 30.3 24l8.4-9.1c27.6 2.6 36.9-3.2 45-12 13.3-14.3 10.5-32.5 8.4-42.6z"/><path opacity=".5" fill="#7E8C8D" d="M108.7 223.7l8.2-8.9-6.8-6.3-8.8 9.5c2.5 1.8 5 3.7 7.4 5.7z"/><path opacity=".17" d="M74.6 234.5l30.5 24.2-11 11.7"/><path fill="gray" d="M137.8 296l-9.7 7.4-86.7-111.9 9.6-7.4M37.9 158.1c-1.7-2.2-5-2.7-7.2-.9L20.5 165c-2.2 1.7-2.7 5-.9 7.2L33 189.6l8.3 1.9 9.6-7.5.2-8.7-13.2-17.2z"/><path fill="#999" d="M32.7 189.3l.4.3 8.3 1.9 9.6-7.4.2-8.7-.2-.3"/><g><path fill="#0586BF" d="M128.1 296l-16.9 13c-1.7 1.3-2 3.8-.7 5.5l10.9 14.2 11.8 2.3-1.1 11.6 26.4 34.2c5.1 6.5 14.5 7.8 21 2.7l8.1-6.3-59.5-77.2z"/><path fill="#05A1E6" d="M128.1 296l17.7-13.7c1.8-1.4 4.3-1.1 5.6.6l10.9 14.2-1.1 12.2L173 311l26.4 34.2c5.1 6.5 3.6 16.1-3.3 21.5l-8.5 6.6-59.5-77.3z"/><path fill="#04628C" d="M173.9 361.1c.9 1.1.7 2.8-.5 3.7l-1.6 1.2c-.5.4-1.2.6-1.9.5-.7-.1-1.3-.4-1.7-1l-23.9-30.9c-.4-.5-.6-1.2-.5-1.9s.4-1.3 1-1.7l1.6-1.2c1.1-.9 2.8-.7 3.7.5l23.8 30.8zM187.2 350.8c.9 1.1.7 2.8-.5 3.7l-1.6 1.2c-.5.4-1.2.6-1.9.5-.7-.1-1.3-.4-1.7-1l-23.8-30.9c-.4-.5-.6-1.2-.5-1.9.1-.7.4-1.3 1-1.7l1.6-1.2c1.1-.898 2.8-.7 3.7.5l23.7 30.8z"/></g><g><path fill="#FFF" d="M222.7 97.8v29.5c0 3.9-3.8 7.1-7.7 7.1-3.9 0-7.8-3.2-7.8-7.1V97.8c0-3.8 3.9-7 7.8-7 3.8 0 7.7 3.2 7.7 7zm65.3-9h-63.5c0-11.1 6.5-19.9 16.2-24.9l-4.9-8.8c-.3-.5-.1-1 .3-1.3.5-.2 1.1 0 1.4.5l4.9 9.1c4.2-1.9 8.8-2.9 13.8-2.9 4.9 0 9.6 1 13.8 2.9l4.9-9.1c.3-.5.9-.6 1.4-.4.5.3.6.9.3 1.4l-4.9 8.5c9.8 5 16.3 13.9 16.3 25zm-1.1 49c0 4.2-2.5 8.5-6.6 8.5h-4.5V161c0 3.9-3.8 7.1-7.8 7.1s-7.8-3.2-7.8-7.1v-14.6h-8.9V161c0 3.9-3.1 7.1-7 7.1-3.8 0-7-2.7-7-6.6l-.1-15.1h-5.1c-4.2 0-7.4-4.3-7.4-8.5V93.2h62v44.6h.2zm-42.4-62.3c0-1.4-1.2-2.7-2.7-2.7-1.4 0-2.6 1.2-2.6 2.7s1.2 2.7 2.6 2.7c1.5 0 2.7-1.2 2.7-2.7zm28.9 0c0-1.4-1.2-2.7-2.6-2.7-1.5 0-2.7 1.2-2.7 2.7s1.2 2.7 2.7 2.7c1.4 0 2.6-1.2 2.6-2.7zm31.2 51.8c0 3.9-2.8 7.1-6.7 7.1-3.8 0-6.6-3.2-6.6-7.1V97.8c0-3.9 2.8-7 6.6-7 3.9 0 6.7 3.1 6.7 7v29.5z"/></g></svg>