<?xml version="1.0" encoding="UTF-8" standalone="no"?>
<!-- Generator: Adobe Illustrator 16.0.0, SVG Export Plug-In . SVG Version: 6.00 Build 0)  -->

<svg
   xmlns:dc="http://purl.org/dc/elements/1.1/"
   xmlns:cc="http://creativecommons.org/ns#"
   xmlns:rdf="http://www.w3.org/1999/02/22-rdf-syntax-ns#"
   xmlns:svg="http://www.w3.org/2000/svg"
   xmlns="http://www.w3.org/2000/svg"
   xmlns:sodipodi="http://sodipodi.sourceforge.net/DTD/sodipodi-0.dtd"
   xmlns:inkscape="http://www.inkscape.org/namespaces/inkscape"
   version="1.1"
   id="Layer_1"
   x="0px"
   y="0px"
   width="164"
   height="163.69"
   viewBox="0 0 164 163.69"
   enable-background="new 0 0 556 163.69"
   xml:space="preserve"
   inkscape:version="0.48.4 r9939"
   sodipodi:docname="sharepoint.svg"><metadata
   id="metadata4022"><rdf:RDF><cc:Work
       rdf:about=""><dc:format>image/svg+xml</dc:format><dc:type
         rdf:resource="http://purl.org/dc/dcmitype/StillImage" /><dc:title></dc:title></cc:Work></rdf:RDF></metadata><defs
   id="defs4020" /><sodipodi:namedview
   pagecolor="#ffffff"
   bordercolor="#666666"
   borderopacity="1"
   objecttolerance="10"
   gridtolerance="10"
   guidetolerance="10"
   inkscape:pageopacity="0"
   inkscape:pageshadow="2"
   inkscape:window-width="1178"
   inkscape:window-height="924"
   id="namedview4018"
   showgrid="false"
   showguides="true"
   inkscape:guide-bbox="true"
   inkscape:zoom="1.1330935"
   inkscape:cx="-38.858819"
   inkscape:cy="127.02481"
   inkscape:window-x="1693"
   inkscape:window-y="88"
   inkscape:window-maximized="0"
   inkscape:current-layer="Layer_1" />
<polygon
   clip-rule="evenodd"
   points="97.56,0 0,17.1 0,146.59 97.56,163.69 "
   id="polygon3950"
   style="fill:#2f356a;fill-rule:evenodd;fill-opacity:1" />
<path
   clip-rule="evenodd"
   d="m 129.27,80.62 c 0,-9.44 7.65,-17.1 17.08,-17.1 9.42,0 17.07,7.66 17.07,17.1 0,9.45 -7.65,17.1 -17.07,17.1 -9.43,0 -17.08,-7.65 -17.08,-17.1 z"
   id="path3952"
   inkscape:connector-curvature="0"
   style="fill:#2f356a;fill-rule:evenodd;fill-opacity:1" />
<path
   clip-rule="evenodd"
   stroke-miterlimit="10"
   d="m 107.32,43.99 c 23.01,0.65 36.59,14.65 36.59,37.85 0,23.21 -14.02,39.65 -37.03,40.3"
   id="path3954"
   inkscape:connector-curvature="0"
   style="fill:none;stroke:#2f356a;stroke-width:7;stroke-linecap:round;stroke-linejoin:round;stroke-miterlimit:10;stroke-opacity:1" />
<path
   clip-rule="evenodd"
   d="m 102.44,28.52 c 2.22,-1.06 4.7,-1.65 7.32,-1.65 9.43,0 17.07,7.66 17.07,17.11 0,9.44 -7.64,17.1 -17.07,17.1 -2.62,0 -5.1,-0.59 -7.32,-1.65"
   id="path3956"
   inkscape:connector-curvature="0"
   style="fill:#2f356a;fill-rule:evenodd;fill-opacity:1" />
<path
   clip-rule="evenodd"
   d="m 102.44,104.26 c 2.22,-1.06 4.7,-1.65 7.32,-1.65 9.43,0 17.07,7.66 17.07,17.1 0,9.45 -7.64,17.1 -17.07,17.1 -2.62,0 -5.1,-0.59 -7.32,-1.64"
   id="path3958"
   inkscape:connector-curvature="0"
   style="fill:#2f356a;fill-rule:evenodd;fill-opacity:1" />

<path
   clip-rule="evenodd"
   d="M 29.49,106.65 V 93.47 c 2.16,2 4.5,3.5 7.03,4.51 2.53,1 5.08,1.5 7.66,1.5 1.51,0 2.83,-0.15 3.96,-0.45 1.13,-0.31 2.07,-0.72 2.82,-1.26 0.76,-0.54 1.32,-1.17 1.7,-1.89 0.37,-0.73 0.55,-1.52 0.55,-2.37 0,-1.16 -0.29,-2.19 -0.89,-3.09 -0.59,-0.91 -1.41,-1.75 -2.43,-2.51 -1.03,-0.77 -2.25,-1.51 -3.67,-2.23 -1.41,-0.71 -2.93,-1.44 -4.57,-2.18 -4.16,-1.92 -7.27,-4.27 -9.31,-7.04 -2.05,-2.78 -3.07,-6.13 -3.07,-10.05 0,-3.08 0.56,-5.72 1.67,-7.93 1.12,-2.21 2.64,-4.03 4.56,-5.46 1.92,-1.43 4.14,-2.48 6.67,-3.15 2.53,-0.67 5.21,-1.01 8.03,-1.01 2.78,0 5.24,0.19 7.38,0.56 2.15,0.37 4.12,0.94 5.93,1.71 v 12.31 c -0.89,-0.68 -1.86,-1.29 -2.92,-1.81 -1.05,-0.52 -2.13,-0.95 -3.25,-1.3 -1.11,-0.34 -2.22,-0.59 -3.33,-0.76 -1.1,-0.16 -2.15,-0.25 -3.14,-0.25 -1.36,0 -2.6,0.15 -3.72,0.44 -1.11,0.28 -2.05,0.69 -2.82,1.21 -0.77,0.52 -1.37,1.15 -1.79,1.87 -0.42,0.73 -0.63,1.55 -0.63,2.46 0,0.98 0.24,1.87 0.71,2.65 0.47,0.78 1.14,1.53 2,2.23 0.87,0.7 1.93,1.38 3.17,2.05 1.23,0.68 2.64,1.37 4.2,2.08 2.13,0.99 4.04,2.04 5.74,3.16 1.7,1.11 3.16,2.36 4.37,3.76 1.21,1.4 2.14,3 2.79,4.8 0.64,1.8 0.97,3.89 0.97,6.28 0,3.3 -0.57,6.06 -1.7,8.3 -1.12,2.24 -2.65,4.05 -4.59,5.44 -1.93,1.38 -4.18,2.38 -6.75,2.98 -2.56,0.61 -5.27,0.91 -8.12,0.91 -2.93,0 -5.71,-0.27 -8.35,-0.82 -2.64,-0.55 -4.92,-1.38 -6.86,-2.47 z"
   id="path3982"
   inkscape:connector-curvature="0"
   style="fill:#ffffff;fill-rule:evenodd" />







</svg>