<svg width="80" height="78" xmlns="http://www.w3.org/2000/svg" xmlns:xlink="http://www.w3.org/1999/xlink" xml:space="preserve" overflow="hidden"><defs><filter id="fx0" x="-10%" y="-10%" width="120%" height="120%" filterUnits="userSpaceOnUse" primitiveUnits="userSpaceOnUse"><feComponentTransfer color-interpolation-filters="sRGB"><feFuncR type="discrete" tableValues="0 0"/><feFuncG type="discrete" tableValues="0 0"/><feFuncB type="discrete" tableValues="0 0"/><feFuncA type="linear" slope="0.25098" intercept="0"/></feComponentTransfer><feGaussianBlur stdDeviation="1.77778 1.77778"/></filter><clipPath id="clip1"><rect x="419" y="901" width="80" height="78"/></clipPath><clipPath id="clip2"><rect x="1" y="1" width="80" height="78"/></clipPath><linearGradient x1="5.74885" y1="12.8876" x2="27.3437" y2="50.289" gradientUnits="userSpaceOnUse" spreadMethod="pad" id="fill3"><stop offset="0" stop-color="#058F92"/><stop offset="0.5" stop-color="#038489"/><stop offset="1" stop-color="#026D71"/></linearGradient></defs><g clip-path="url(#clip1)" transform="translate(-419 -901)"><g clip-path="url(#clip2)" filter="url(#fx0)" transform="translate(418 900)"><g><g><g><path d="M51.1429 18.0505C51.1429 28.0195 43.0614 36.1009 33.0924 36.1009 23.1234 36.1009 15.0419 28.0195 15.0419 18.0505 15.0419 8.08147 23.1234-7.38166e-15 33.0924-7.38166e-15 43.0614-1.10725e-14 51.1429 8.08147 51.1429 18.0505Z" fill="#036C70" transform="matrix(1.00734 0 0 1 8.383 8.15039)"/><path d="M64.681 34.5968C64.681 43.7351 57.2729 51.1431 48.1347 51.1431 38.9964 51.1431 31.5884 43.7351 31.5884 34.5968 31.5884 25.4586 38.9964 18.0506 48.1347 18.0506 57.2729 18.0506 64.681 25.4586 64.681 34.5968Z" fill="#1A9BA1" transform="matrix(1.00734 0 0 1 8.383 8.15039)"/><path d="M48.1345 50.391C48.1345 57.4524 42.4101 63.1767 35.3487 63.1767 28.2874 63.1767 22.563 57.4524 22.563 50.391 22.563 43.3296 28.2874 37.6053 35.3487 37.6053 42.4101 37.6053 48.1345 43.3296 48.1345 50.391Z" fill="#37C6D0" transform="matrix(1.00734 0 0 1 8.383 8.15039)"/><path d="M36.1009 16.2905 36.1009 48.3902C36.0935 49.5057 35.4175 50.5079 34.3861 50.9325 34.0576 51.0711 33.7047 51.1429 33.3482 51.1429L22.5781 51.1429C22.5631 50.8874 22.5631 50.6465 22.5631 50.391 22.5581 50.1397 22.5681 49.8888 22.5932 49.6388 22.8685 44.8304 25.8306 40.5882 30.2496 38.6731L30.2496 35.8753C20.4149 34.3167 13.7058 25.0809 15.2642 15.2462 15.275 15.1781 15.2862 15.11 15.2978 15.042 15.3727 14.5347 15.4782 14.0324 15.6137 13.5379L33.3482 13.5379C34.866 13.5436 36.0951 14.7727 36.1009 16.2905Z" fill="#000000" fill-opacity="0.1" transform="matrix(1.00734 0 0 1 8.383 8.15039)"/><path d="M31.844 15.042 15.2978 15.042C13.6263 24.859 20.2294 34.1722 30.0463 35.8435 30.3436 35.8941 30.6421 35.9373 30.9415 35.973 26.2785 38.1842 22.8805 44.4642 22.5917 49.6388 22.5666 49.8888 22.5566 50.1397 22.5616 50.391 22.5616 50.6465 22.5616 50.8874 22.5766 51.1429 22.6037 51.6487 22.6691 52.1516 22.7721 52.6473L31.8425 52.6473C32.958 52.6398 33.9599 51.9639 34.3845 50.9325 34.5235 50.604 34.5952 50.2511 34.5952 49.8946L34.5952 17.7947C34.5894 16.2775 33.3612 15.0487 31.844 15.042Z" fill="#000000" fill-opacity="0.2" transform="matrix(1.00734 0 0 1 8.383 8.15039)"/><path d="M31.844 15.042 15.2978 15.042C13.6266 24.8599 20.2308 34.1735 30.0486 35.8448 30.2495 35.8789 30.4508 35.9097 30.6527 35.937 26.1401 38.3076 22.876 44.5726 22.5932 49.6388L31.844 49.6388C33.3596 49.6274 34.5852 48.4016 34.5968 46.8861L34.5968 17.7947C34.591 16.2769 33.3619 15.0478 31.844 15.042Z" fill="#000000" fill-opacity="0.2" transform="matrix(1.00734 0 0 1 8.383 8.15039)"/><path d="M30.3398 15.042 15.2978 15.042C13.7198 24.3102 19.5273 33.2356 28.6401 35.5474 25.1896 39.4896 23.0731 44.4217 22.5932 49.6388L30.3398 49.6388C31.8577 49.6329 33.0869 48.4038 33.0924 46.8861L33.0924 17.7947C33.0918 16.2748 31.8598 15.0429 30.3398 15.042Z" fill="#000000" fill-opacity="0.2" transform="matrix(1.00734 0 0 1 8.383 8.15039)"/><path d="M2.75721 15.042 30.3353 15.042C31.8581 15.042 33.0924 16.2765 33.0924 17.7993L33.0924 45.3774C33.0924 46.9001 31.8581 48.1347 30.3353 48.1347L2.75721 48.1347C1.23444 48.1347 0 46.9001 0 45.3774L0 17.7993C0 16.2765 1.23444 15.042 2.75721 15.042Z" fill="#FF0000" transform="matrix(1.00734 0 0 1 8.383 8.15039)"/><path d="M12.3149 31.2514C11.6688 30.8228 11.1291 30.2522 10.737 29.5832 10.3571 28.8838 10.1678 28.0969 10.188 27.3013 10.1541 26.2241 10.5176 25.1721 11.2093 24.3455 11.9361 23.518 12.8756 22.9052 13.9259 22.5736 15.1229 22.1796 16.3766 21.9854 17.6368 21.999 19.2939 21.9384 20.9487 22.1701 22.5254 22.6834L22.5254 26.1431C21.8403 25.7281 21.0941 25.4235 20.3142 25.2406 19.468 25.033 18.5998 24.929 17.7285 24.9307 16.8098 24.8969 15.8969 25.0902 15.0706 25.4933 14.4327 25.7684 14.019 26.396 14.0176 27.0907 14.0151 27.5122 14.177 27.918 14.4689 28.2219 14.8138 28.5802 15.2217 28.8719 15.6723 29.0823 16.1737 29.332 16.9258 29.664 17.9286 30.0781 18.039 30.113 18.1466 30.1563 18.2505 30.2075 19.2374 30.5932 20.1896 31.0627 21.0965 31.6109 21.7832 32.0344 22.3596 32.6149 22.7782 33.3047 23.2073 34.0865 23.4153 34.9705 23.3798 35.8617 23.4288 36.9677 23.0905 38.056 22.4232 38.9393 21.758 39.7513 20.8687 40.3499 19.866 40.6603 18.6866 41.0298 17.4556 41.2086 16.2198 41.1898 15.111 41.1947 14.0038 41.1041 12.9106 40.919 11.9875 40.7678 11.0866 40.5032 10.2286 40.1308L10.2286 36.483C11.0488 37.0687 11.9651 37.5067 12.9361 37.7768 13.9039 38.0784 14.9099 38.2394 15.9235 38.255 16.8616 38.3144 17.798 38.1157 18.6311 37.6804 19.2147 37.3512 19.5696 36.7272 19.5547 36.0574 19.5586 35.5912 19.3742 35.1432 19.0432 34.815 18.6317 34.4108 18.1553 34.0787 17.6338 33.8326 17.0321 33.5317 16.1461 33.1353 14.9759 32.6428 14.0449 32.2685 13.1535 31.8024 12.3149 31.2514Z" fill="#FFFFFF" transform="matrix(1.00734 0 0 1 8.383 8.15039)"/></g></g></g></g><g><g><path d="M51.1429 18.0505C51.1429 28.0195 43.0614 36.1009 33.0924 36.1009 23.1234 36.1009 15.0419 28.0195 15.0419 18.0505 15.0419 8.08147 23.1234-7.38166e-15 33.0924-7.38166e-15 43.0614-1.10725e-14 51.1429 8.08147 51.1429 18.0505Z" fill="#036C70" transform="matrix(1.00734 0 0 1 424.497 906.265)"/><path d="M64.681 34.5968C64.681 43.7351 57.2729 51.1431 48.1347 51.1431 38.9964 51.1431 31.5884 43.7351 31.5884 34.5968 31.5884 25.4586 38.9964 18.0506 48.1347 18.0506 57.2729 18.0506 64.681 25.4586 64.681 34.5968Z" fill="#1A9BA1" transform="matrix(1.00734 0 0 1 424.497 906.265)"/><path d="M48.1345 50.391C48.1345 57.4524 42.4101 63.1767 35.3487 63.1767 28.2874 63.1767 22.563 57.4524 22.563 50.391 22.563 43.3296 28.2874 37.6053 35.3487 37.6053 42.4101 37.6053 48.1345 43.3296 48.1345 50.391Z" fill="#37C6D0" transform="matrix(1.00734 0 0 1 424.497 906.265)"/><path d="M36.1009 16.2905 36.1009 48.3902C36.0935 49.5057 35.4175 50.5079 34.3861 50.9325 34.0576 51.0711 33.7047 51.1429 33.3482 51.1429L22.5781 51.1429C22.5631 50.8874 22.5631 50.6465 22.5631 50.391 22.5581 50.1397 22.5681 49.8888 22.5932 49.6388 22.8685 44.8304 25.8306 40.5882 30.2496 38.6731L30.2496 35.8753C20.4149 34.3167 13.7058 25.0809 15.2642 15.2462 15.275 15.1781 15.2862 15.11 15.2978 15.042 15.3727 14.5347 15.4782 14.0324 15.6137 13.5379L33.3482 13.5379C34.866 13.5436 36.0951 14.7727 36.1009 16.2905Z" fill="#000000" fill-opacity="0.1" transform="matrix(1.00734 0 0 1 424.497 906.265)"/><path d="M31.844 15.042 15.2978 15.042C13.6263 24.859 20.2294 34.1722 30.0463 35.8435 30.3436 35.8941 30.6421 35.9373 30.9415 35.973 26.2785 38.1842 22.8805 44.4642 22.5917 49.6388 22.5666 49.8888 22.5566 50.1397 22.5616 50.391 22.5616 50.6465 22.5616 50.8874 22.5766 51.1429 22.6037 51.6487 22.6691 52.1516 22.7721 52.6473L31.8425 52.6473C32.958 52.6398 33.9599 51.9639 34.3845 50.9325 34.5235 50.604 34.5952 50.2511 34.5952 49.8946L34.5952 17.7947C34.5894 16.2775 33.3612 15.0487 31.844 15.042Z" fill="#000000" fill-opacity="0.2" transform="matrix(1.00734 0 0 1 424.497 906.265)"/><path d="M31.844 15.042 15.2978 15.042C13.6266 24.8599 20.2308 34.1735 30.0486 35.8448 30.2495 35.8789 30.4508 35.9097 30.6527 35.937 26.1401 38.3076 22.876 44.5726 22.5932 49.6388L31.844 49.6388C33.3596 49.6274 34.5852 48.4016 34.5968 46.8861L34.5968 17.7947C34.591 16.2769 33.3619 15.0478 31.844 15.042Z" fill="#000000" fill-opacity="0.2" transform="matrix(1.00734 0 0 1 424.497 906.265)"/><path d="M30.3398 15.042 15.2978 15.042C13.7198 24.3102 19.5273 33.2356 28.6401 35.5474 25.1896 39.4896 23.0731 44.4217 22.5932 49.6388L30.3398 49.6388C31.8577 49.6329 33.0869 48.4038 33.0924 46.8861L33.0924 17.7947C33.0918 16.2748 31.8598 15.0429 30.3398 15.042Z" fill="#000000" fill-opacity="0.2" transform="matrix(1.00734 0 0 1 424.497 906.265)"/><path d="M2.75721 15.042 30.3353 15.042C31.8581 15.042 33.0924 16.2765 33.0924 17.7993L33.0924 45.3774C33.0924 46.9001 31.8581 48.1347 30.3353 48.1347L2.75721 48.1347C1.23444 48.1347 0 46.9001 0 45.3774L0 17.7993C0 16.2765 1.23444 15.042 2.75721 15.042Z" fill="url(#fill3)" transform="matrix(1.00734 0 0 1 424.497 906.265)"/><path d="M12.3149 31.2514C11.6688 30.8228 11.1291 30.2522 10.737 29.5832 10.3571 28.8838 10.1678 28.0969 10.188 27.3013 10.1541 26.2241 10.5176 25.1721 11.2093 24.3455 11.9361 23.518 12.8756 22.9052 13.9259 22.5736 15.1229 22.1796 16.3766 21.9854 17.6368 21.999 19.2939 21.9384 20.9487 22.1701 22.5254 22.6834L22.5254 26.1431C21.8403 25.7281 21.0941 25.4235 20.3142 25.2406 19.468 25.033 18.5998 24.929 17.7285 24.9307 16.8098 24.8969 15.8969 25.0902 15.0706 25.4933 14.4327 25.7684 14.019 26.396 14.0176 27.0907 14.0151 27.5122 14.177 27.918 14.4689 28.2219 14.8138 28.5802 15.2217 28.8719 15.6723 29.0823 16.1737 29.332 16.9258 29.664 17.9286 30.0781 18.039 30.113 18.1466 30.1563 18.2505 30.2075 19.2374 30.5932 20.1896 31.0627 21.0965 31.6109 21.7832 32.0344 22.3596 32.6149 22.7782 33.3047 23.2073 34.0865 23.4153 34.9705 23.3798 35.8617 23.4288 36.9677 23.0905 38.056 22.4232 38.9393 21.758 39.7513 20.8687 40.3499 19.866 40.6603 18.6866 41.0298 17.4556 41.2086 16.2198 41.1898 15.111 41.1947 14.0038 41.1041 12.9106 40.919 11.9875 40.7678 11.0866 40.5032 10.2286 40.1308L10.2286 36.483C11.0488 37.0687 11.9651 37.5067 12.9361 37.7768 13.9039 38.0784 14.9099 38.2394 15.9235 38.255 16.8616 38.3144 17.798 38.1157 18.6311 37.6804 19.2147 37.3512 19.5696 36.7272 19.5547 36.0574 19.5586 35.5912 19.3742 35.1432 19.0432 34.815 18.6317 34.4108 18.1553 34.0787 17.6338 33.8326 17.0321 33.5317 16.1461 33.1353 14.9759 32.6428 14.0449 32.2685 13.1535 31.8024 12.3149 31.2514Z" fill="#FFFFFF" transform="matrix(1.00734 0 0 1 424.497 906.265)"/></g></g></g></svg>